<?xml version="1.0" encoding="UTF-8" standalone="no" ?>
<!DOCTYPE svg PUBLIC "-//W3C//DTD SVG 1.1//EN" "http://www.w3.org/Graphics/SVG/1.1/DTD/svg11.dtd">
<svg xmlns="http://www.w3.org/2000/svg" xmlns:xlink="http://www.w3.org/1999/xlink" version="1.1" width="1080" height="1080" viewBox="0 0 1080 1080" xml:space="preserve">
<desc>Created with Fabric.js 5.2.4</desc>
<defs>
</defs>
<g transform="matrix(1 0 0 1 540 540)" id="a11ecf43-b9fb-4bb0-adf7-4ef5975b2a78"  >
<rect style="stroke: none; stroke-width: 1; stroke-dasharray: none; stroke-linecap: butt; stroke-dashoffset: 0; stroke-linejoin: miter; stroke-miterlimit: 4; fill: rgb(255,255,255); fill-rule: nonzero; opacity: 1; visibility: hidden;" vector-effect="non-scaling-stroke"  x="-540" y="-540" rx="0" ry="0" width="1080" height="1080" />
</g>
<g transform="matrix(1 0 0 1 540 540)" id="c3cd9a6f-9bc2-4441-954a-b0482fe8207e"  >
</g>
<g transform="matrix(1 0 0 1 540.5 540.5)" id="60534319-fc71-40ec-b63f-f102970c6fa9"  >
<path style="stroke: rgb(0,0,0); stroke-width: 1; stroke-dasharray: none; stroke-linecap: butt; stroke-dashoffset: 0; stroke-linejoin: miter; stroke-miterlimit: 4; fill: rgb(255,255,255); fill-rule: nonzero; opacity: 1;" vector-effect="non-scaling-stroke"  transform=" translate(-61.44, -46.28)" d="M 14 0 L 14 0 C 17.519018663889184 0.010979857507729266 20.369020142492268 2.860981336110811 20.38 6.379999999999997 L 20.38 16.82 L 33.94 16.82 C 34.95147078952449 12.319836217500438 38.947566019184436 9.12222108027834 43.559999999999995 9.12222108027834 C 48.172433980815555 9.12222108027834 52.1685292104755 12.319836217500438 53.17999999999999 16.82 L 59.769999999999996 16.82 C 60.78147078952449 12.319836217500438 64.77756601918443 9.12222108027834 69.38999999999999 9.12222108027834 C 74.00243398081555 9.12222108027834 77.9985292104755 12.319836217500438 79.00999999999999 16.82 L 102.50999999999999 16.82 L 102.50999999999999 6.38 C 102.52097985750773 2.86098133611081 105.37098133611082 0.010979857507725121 108.89 8.881784197001252e-16 L 108.89 0 C 112.40901866388919 0.010979857507729259 115.25902014249226 2.860981336110813 115.27 6.379999999999997 L 115.27 81.9 L 120.38 81.9 C 121.7568160409401 81.8999889854278 122.87449273588011 83.01319497358806 122.88 84.39 L 122.88 90.07 C 122.88 91.45071187457698 121.76071187457698 92.57 120.38 92.57 L 2.5 92.57 C 1.1192881254230165 92.57 0 91.45071187457698 0 90.07 L 0 84.39 C 0.0055072641198803006 83.01319497358806 1.1231839590599055 81.8999889854278 2.4999999999999996 81.9 L 7.61 81.9 L 7.61 6.38 C 7.621004874946097 2.857089642154522 10.477076727306635 0.005487385807070311 14 8.881784197001252e-16 Z M 20.38 21.18 L 20.38 40.79 L 55 40.79 C 56.02890602882148 36.30590443089405 60.019373880761364 33.12737400546442 64.62 33.12737400546442 C 69.22062611923863 33.12737400546442 73.21109397117851 36.30590443089405 74.24 40.78999999999999 L 80.83 40.79 C 81.85890602882148 36.30590443089405 85.84937388076136 33.12737400546442 90.44999999999999 33.12737400546442 C 95.05062611923863 33.12737400546442 99.04109397117851 36.30590443089405 100.07 40.78999999999999 L 102.49 40.79 L 102.49 21.18 L 79 21.18 C 77.97109397117852 25.664095569105942 73.98062611923864 28.84262599453558 69.38 28.84262599453558 C 64.77937388076137 28.84262599453558 60.788906028821486 25.664095569105946 59.760000000000005 21.180000000000003 L 53.18 21.18 C 52.151093971178526 25.66409556910595 48.16062611923864 28.842625994535595 43.56 28.842625994535595 C 38.95937388076136 28.842625994535595 34.96890602882147 25.664095569105953 33.94 21.180000000000003 Z M 73.25 57.08 C 77.85711369850193 57.07812485503668 81.85138895212677 60.26690177269142 82.87 64.75999999999999 L 102.52000000000001 64.75999999999999 L 102.52000000000001 45.15 L 100.10000000000001 45.15 C 99.07109397117853 49.634095569105945 95.08062611923864 52.81262599453558 90.48000000000002 52.81262599453558 C 85.87937388076138 52.81262599453558 81.8889060288215 49.634095569105945 80.86000000000001 45.15 L 74.26 45.15 C 73.23109397117852 49.634095569105945 69.24062611923864 52.81262599453558 64.64000000000001 52.81262599453558 C 60.039373880761374 52.81262599453558 56.04890602882149 49.634095569105945 55.02000000000001 45.15 L 20.37 45.15 L 20.37 64.76 L 37.8 64.76 C 38.81994050144744 60.270454772177196 42.81105658384473 57.08434772872818 47.415 57.08434772872818 C 52.01894341615527 57.08434772872818 56.01005949855256 60.270454772177196 57.03 64.76 L 63.63 64.76 C 64.64778322840974 60.27055112088149 68.63662883041081 57.08279521834578 73.24000000000001 57.080000000000005 Z M 82.87 69.08 C 81.85005949855255 73.5695452278228 77.85894341615527 76.75565227127183 73.255 76.75565227127183 C 68.65105658384473 76.75565227127183 64.65994050144744 73.56954522782281 63.64 69.08 L 57 69.08 C 55.980059498552556 73.5695452278228 51.988943416155266 76.75565227127183 47.385 76.75565227127183 C 42.78105658384473 76.75565227127183 38.78994050144744 73.56954522782281 37.769999999999996 69.08 L 20.37 69.08 L 20.37 81.9 L 102.51 81.9 L 102.51 69.12 Z" stroke-linecap="round" />
</g>
</svg>