<?xml version="1.0" encoding="UTF-8" standalone="no" ?>
<!DOCTYPE svg PUBLIC "-//W3C//DTD SVG 1.1//EN" "http://www.w3.org/Graphics/SVG/1.1/DTD/svg11.dtd">
<svg xmlns="http://www.w3.org/2000/svg" xmlns:xlink="http://www.w3.org/1999/xlink" version="1.1" width="1080" height="1080" viewBox="0 0 1080 1080" xml:space="preserve">
<desc>Created with Fabric.js 5.2.4</desc>
<defs>
</defs>
<g transform="matrix(1 0 0 1 540 540)" id="f2b8621a-7b97-47eb-9e7a-00c419cf00bd"  >
<rect style="stroke: none; stroke-width: 1; stroke-dasharray: none; stroke-linecap: butt; stroke-dashoffset: 0; stroke-linejoin: miter; stroke-miterlimit: 4; fill: rgb(255,255,255); fill-rule: nonzero; opacity: 1; visibility: hidden;" vector-effect="non-scaling-stroke"  x="-540" y="-540" rx="0" ry="0" width="1080" height="1080" />
</g>
<g transform="matrix(1 0 0 1 540 540)" id="a584f424-0052-4e13-b131-99492ea3a1e1"  >
</g>
<g transform="matrix(1 0 0 1 540.5 540.5)" id="037aa194-8049-4a4c-9033-43bee702675e"  >
<path style="stroke: rgb(0,0,0); stroke-width: 1; stroke-dasharray: none; stroke-linecap: butt; stroke-dashoffset: 0; stroke-linejoin: miter; stroke-miterlimit: 4; fill: rgb(255,255,255); fill-rule: nonzero; opacity: 1;" vector-effect="non-scaling-stroke"  transform=" translate(-58.95, -61.44)" d="M 32.22 84.07 L 35.019999999999996 86.86999999999999 C 35.76 87.60999999999999 35.76 88.80999999999999 35.019999999999996 89.55 L 32.769999999999996 91.8 C 33.4 92.97 33.87 94.23 34.169999999999995 95.53 L 37.089999999999996 95.53 C 38.129999999999995 95.53 38.98 96.38 38.98 97.42 L 38.98 101.37 C 38.98 102.41000000000001 38.129999999999995 103.26 37.089999999999996 103.26 L 33.91 103.26 C 33.519999999999996 104.53 32.97 105.75 32.26 106.88000000000001 L 34.33 108.94000000000001 C 35.07 109.68 35.07 110.88000000000001 34.33 111.62000000000002 L 31.529999999999998 114.42000000000002 C 30.79 115.16000000000001 29.589999999999996 115.16000000000001 28.849999999999998 114.42000000000002 L 26.599999999999998 112.17000000000002 C 25.43 112.80000000000001 24.169999999999998 113.27000000000001 22.869999999999997 113.57000000000002 L 22.869999999999997 116.49000000000002 C 22.869999999999997 117.53000000000003 22.019999999999996 118.38000000000002 20.979999999999997 118.38000000000002 L 17.029999999999998 118.38000000000002 C 15.989999999999998 118.38000000000002 15.139999999999997 117.53000000000003 15.139999999999997 116.49000000000002 L 15.139999999999997 113.31000000000002 C 13.869999999999997 112.92000000000002 12.649999999999997 112.37000000000002 11.519999999999996 111.66000000000001 L 9.459999999999996 113.73 C 8.719999999999995 114.47 7.519999999999996 114.47 6.779999999999996 113.73 L 3.979999999999996 110.93 C 3.2399999999999958 110.19000000000001 3.2399999999999958 108.99000000000001 3.979999999999996 108.25 L 6.229999999999996 106 C 5.599999999999996 104.83 5.1299999999999955 103.57 4.8299999999999965 102.27 L 1.9099999999999966 102.27 C 0.8699999999999966 102.27 0.019999999999996687 101.42 0.019999999999996687 100.38 L 0.019999999999996687 96.42 C 0.019999999999996687 95.38 0.8699999999999967 94.53 1.9099999999999966 94.53 L 5.089999999999996 94.53 C 5.479999999999996 93.26 6.029999999999996 92.03 6.739999999999997 90.91 L 4.669999999999996 88.85 C 3.929999999999996 88.11 3.929999999999996 86.91 4.669999999999996 86.16999999999999 L 7.469999999999996 83.36999999999999 C 8.209999999999996 82.63 9.409999999999997 82.63 10.149999999999997 83.36999999999999 L 12.399999999999997 85.61999999999999 C 13.559999999999997 84.99999999999999 14.809999999999997 84.52 16.129999999999995 84.21999999999998 L 16.129999999999995 81.3 C 16.129999999999995 80.25999999999999 16.979999999999997 79.41 18.019999999999996 79.41 L 21.969999999999995 79.41 C 23.009999999999994 79.41 23.859999999999996 80.25999999999999 23.859999999999996 81.3 L 23.859999999999996 84.48 C 25.129999999999995 84.87 26.359999999999996 85.42 27.479999999999997 86.13000000000001 L 29.539999999999996 84.06000000000002 C 30.28 83.34 31.48 83.34 32.22 84.07 L 32.22 84.07 L 32.22 84.07 z M 68.28 117.8 C 67.2 117.85 66.27 118.59 65.96000000000001 119.61999999999999 C 65.47000000000001 121.3 66.77000000000001 122.93999999999998 68.52000000000001 122.86999999999999 C 70.29 122.8 72.09 122.63999999999999 73.84 122.36999999999999 C 76.57000000000001 121.91 76.77000000000001 118.10999999999999 74.06 117.38999999999999 C 73.73 117.30999999999999 73.42 117.29999999999998 73.08 117.34999999999998 C 71.47 117.59 69.88 117.74 68.28 117.8 L 68.28 117.8 z M 50.95 116.48 C 48.68 115.83 46.84 118.44 48.190000000000005 120.37 C 48.52 120.86 49.03000000000001 121.21000000000001 49.6 121.37 C 51.33 121.85000000000001 53.050000000000004 122.22 54.82 122.53 C 55.81 122.69 56.81 122.27 57.36 121.42 C 58.37 119.9 57.45 117.8 55.65 117.52 C 54.05 117.26 52.49 116.92 50.95 116.48 L 50.95 116.48 z M 104.27 64.48 C 104.89 66.76 107.99 67.05 109.03 64.89 C 109.28 64.32000000000001 109.33 63.78 109.18 63.17 C 108.73 61.46 108.17 59.730000000000004 107.54 58.08 C 107.19000000000001 57.15 106.31 56.51 105.31 56.46 C 103.47 56.36 102.14 58.19 102.8 59.910000000000004 C 103.36 61.39 103.87 62.93 104.27 64.48 L 104.27 64.48 z M 96.77 49.63 C 98.36999999999999 52.010000000000005 102.07 50.410000000000004 101.34 47.550000000000004 C 101.27000000000001 47.290000000000006 101.17 47.09 101.03 46.86000000000001 C 100.06 45.36000000000001 99.02 43.93000000000001 97.91 42.540000000000006 C 96.25999999999999 40.50000000000001 92.94 41.99000000000001 93.45 44.67000000000001 C 93.54 45.07000000000001 93.7 45.41000000000001 93.96000000000001 45.73000000000001 C 94.95 46.99 95.89 48.27 96.77 49.63 L 96.77 49.63 z M 116.48 76.37 C 116.7 76.33 116.93 76.37 117.13000000000001 76.49000000000001 C 117.46000000000001 76.63000000000001 117.69000000000001 76.95 117.69000000000001 77.32000000000001 L 117.88000000000001 103.66000000000001 C 117.9 103.98 117.74000000000001 104.30000000000001 117.44000000000001 104.48 L 106.68 110.9 C 106.53 111.01 106.34 111.08000000000001 106.13000000000001 111.08000000000001 C 106.08000000000001 111.08000000000001 106.03000000000002 111.08000000000001 105.98 111.07000000000001 L 78.07000000000001 107.97000000000001 C 77.59 107.94000000000001 77.21000000000001 107.55000000000001 77.21000000000001 107.06000000000002 L 77.21000000000001 80.27 L 77.21000000000001 80.27 C 77.2 79.91 77.4 79.56 77.75000000000001 79.41 L 91.75000000000001 73.25 L 91.75000000000001 73.25 C 91.90000000000002 73.19 92.06000000000002 73.16 92.23000000000002 73.18 L 116.48 76.37 L 116.48 76.37 L 116.48 76.37 z M 37.57 41.21 L 84.57 41.21 L 84.57 43.85 L 37.56999999999999 43.85 L 37.56999999999999 41.21 L 37.57 41.21 z M 61.66 7.07 L 61.089999999999996 12.56 L 67.25999999999999 12.56 L 66.7 7.07 L 61.66 7.07 L 61.66 7.07 L 61.66 7.07 z M 45.44 0 L 44.65 7.68 L 53.269999999999996 7.68 L 52.47 0 L 45.44 0 L 45.44 0 L 45.44 0 z M 44.5 9.13 L 44.1 12.9 L 53.8 12.9 L 53.41 9.13 L 44.5 9.13 L 44.5 9.13 L 44.5 9.13 z M 43.95 14.37 L 43.370000000000005 21.169999999999998 L 39.74 20.499999999999996 L 39.74 39.89999999999999 L 82.38 39.89999999999999 L 82.38 27.2 L 68.28 25.74 L 67.76 17.339999999999996 L 60.6 17.339999999999996 L 60.25 24.259999999999998 L 54.76 23.249999999999996 L 53.96 14.359999999999996 L 43.95 14.359999999999996 L 43.95 14.37 L 43.95 14.37 z M 60.99 13.6 L 60.71 16.3 L 67.66 16.3 L 67.38 13.600000000000001 L 60.99 13.600000000000001 L 60.99 13.6 z M 107.37 84.39 L 107.37 107.91 L 115.4 103.19 L 115.22 79.47 L 107.37 84.39 L 107.37 84.39 L 107.37 84.39 z M 104.24 108.5 L 104.24 84.64 L 93.32 83.12 L 92.93 94.5 L 88.75 91.65 L 84.57 94.01 L 85.42999999999999 82.11 L 79.67999999999999 81.29 L 79.67999999999999 105.58000000000001 L 104.24 108.5 L 104.24 108.5 L 104.24 108.5 z M 102.68 77.13 L 94.56 81.46 L 105.32000000000001 82.91999999999999 L 112.67 78.52999999999999 L 102.68 77.13 L 102.68 77.13 L 102.68 77.13 z M 86.88 80.1 L 94.74 76.03999999999999 L 91.6 75.66999999999999 L 81.75 79.44999999999999 L 86.88 80.1 L 86.88 80.1 z M 18.84 49.89 C 19.37 48.9 19.18 47.69 18.39 46.9 C 17.17 45.699999999999996 15.16 46 14.36 47.51 C 13.52 49.08 12.77 50.68 12.1 52.339999999999996 C 11.12 54.76 14.02 56.949999999999996 16.11 55.22 C 16.419999999999998 54.949999999999996 16.65 54.64 16.8 54.25 C 17.41 52.76 18.08 51.31 18.84 49.89 L 18.84 49.89 z M 28.54 38.08 C 29.13 37.51 29.369999999999997 36.75 29.29 35.94 C 29.02 33.849999999999994 26.5 32.98 25 34.43 C 23.72 35.67 22.5 36.96 21.35 38.33 C 20.16 39.75 20.84 41.89 22.610000000000003 42.41 C 23.6 42.669999999999995 24.570000000000004 42.37 25.240000000000002 41.589999999999996 C 26.3 40.36 27.38 39.2 28.54 38.08 L 28.54 38.08 z M 14.46 64.83 C 14.65 63.73 14.110000000000001 62.629999999999995 13.110000000000001 62.12 C 11.600000000000001 61.36 9.740000000000002 62.269999999999996 9.46 63.94 C 9.14 65.72 8.940000000000001 67.46 8.8 69.25999999999999 C 8.75 70.13 9.13 70.96 9.83 71.46999999999998 C 11.44 72.65999999999998 13.75 71.57999999999998 13.870000000000001 69.58999999999999 C 13.99 68 14.18 66.41 14.46 64.83 L 14.46 64.83 z M 19.49 91.12 C 23.779999999999998 91.12 27.27 94.60000000000001 27.27 98.9 C 27.27 103.19000000000001 23.79 106.68 19.49 106.68 C 15.2 106.68 11.709999999999997 103.2 11.709999999999997 98.9 C 11.71 94.6 15.19 91.12 19.49 91.12 L 19.49 91.12 z" stroke-linecap="round" />
</g>
</svg>