<?xml version="1.0" encoding="UTF-8" standalone="no" ?>
<!DOCTYPE svg PUBLIC "-//W3C//DTD SVG 1.1//EN" "http://www.w3.org/Graphics/SVG/1.1/DTD/svg11.dtd">
<svg xmlns="http://www.w3.org/2000/svg" xmlns:xlink="http://www.w3.org/1999/xlink" version="1.1" width="1080" height="1080" viewBox="0 0 1080 1080" xml:space="preserve">
<desc>Created with Fabric.js 5.2.4</desc>
<defs>
</defs>
<g transform="matrix(1 0 0 1 540 540)" id="938b9ae2-5162-43f8-aa5b-6572a43fd104"  >
<rect style="stroke: none; stroke-width: 1; stroke-dasharray: none; stroke-linecap: butt; stroke-dashoffset: 0; stroke-linejoin: miter; stroke-miterlimit: 4; fill: rgb(255,255,255); fill-rule: nonzero; opacity: 1; visibility: hidden;" vector-effect="non-scaling-stroke"  x="-540" y="-540" rx="0" ry="0" width="1080" height="1080" />
</g>
<g transform="matrix(1 0 0 1 540 540)" id="592e786f-69e2-4466-88a8-6a6e270f427d"  >
</g>
<g transform="matrix(1 0 0 1 540.5 540.5)" id="e87f5e48-9d8c-4ca9-8a1f-f4b7136927ca"  >
<path style="stroke: rgb(0,0,0); stroke-width: 1; stroke-dasharray: none; stroke-linecap: butt; stroke-dashoffset: 0; stroke-linejoin: miter; stroke-miterlimit: 4; fill: rgb(255,255,255); fill-rule: nonzero; opacity: 1;" vector-effect="non-scaling-stroke"  transform=" translate(-55.59, -61.44)" d="M 76.59 59.19 L 104.33 59.19 C 108.09 59.19 111.17 62.269999999999996 111.17 66.03 L 111.17 94.07 C 111.17 97.83 108.09 100.91 104.33 100.91 L 76.59 100.91 C 65.12 100.91 55.730000000000004 91.52 55.730000000000004 80.05 L 55.730000000000004 80.05 C 55.73 68.58 65.11 59.19 76.59 59.19 L 76.59 59.19 z M 10.98 26.25 L 28.68 26.25 C 28.65 25.75 28.63 25.25 28.63 24.74 C 28.64 11.08 39.71 0 53.38 0 C 67.04 0 78.12 11.08 78.12 24.74 C 78.12 25.24 78.10000000000001 25.74 78.08 26.24 L 84.59 26.229999999999997 C 91.24000000000001 26.219999999999995 96.68 31.429999999999996 96.68 38.08 L 96.68 40.059999999999995 C 99.96000000000001 42.23 102.13000000000001 45.949999999999996 102.13000000000001 50.14999999999999 L 102.13000000000001 54.50999999999999 L 94.45000000000002 54.50999999999999 L 94.45000000000002 51.599999999999994 C 94.45000000000002 48.46999999999999 91.89000000000001 45.919999999999995 88.77000000000001 45.919999999999995 L 18.12 45.919999999999995 L 18.12 39.589999999999996 C 18.12 38.74999999999999 18.810000000000002 38.059999999999995 19.650000000000002 38.059999999999995 L 32.53 38.059999999999995 C 31.68 36.739999999999995 30.96 35.33 30.37 33.849999999999994 L 12.69 33.849999999999994 C 10.489999999999998 33.849999999999994 8.7 35.64999999999999 8.7 37.839999999999996 L 8.7 110.47999999999999 C 8.7 112.67999999999999 10.5 114.46999999999998 12.69 114.46999999999998 L 90.39999999999999 114.46999999999998 C 92.6 114.46999999999998 94.38999999999999 112.66999999999999 94.38999999999999 110.47999999999999 L 94.38999999999999 105.91 L 102.26999999999998 105.91 L 102.26999999999998 113.46 L 102.24999999999999 113.46 C 102.21999999999998 118.67999999999999 96.64999999999999 122.88999999999999 91.14999999999999 122.88999999999999 L 10.95 122.88999999999999 C 4.93 122.88 0 117.95 0 111.93 L 0 37.230000000000004 C 0 31.19 4.94 26.25 10.98 26.25 L 10.98 26.25 z M 76.39 33.84 C 75.8 35.32 75.08 36.730000000000004 74.23 38.050000000000004 L 90.03 38.050000000000004 C 90.47 38.050000000000004 90.9 38.07000000000001 91.33 38.120000000000005 L 91.33 37.830000000000005 C 91.33 35.63 89.53 33.84 87.34 33.84 L 76.39 33.84 L 76.39 33.84 z M 55.03 38.06 L 55.03 35.74 C 56.300000000000004 35.690000000000005 57.38 35.52 58.26 35.24 C 59.14 34.95 59.97 34.5 60.76 33.870000000000005 C 61.54 33.230000000000004 62.18 32.45 62.69 31.500000000000004 C 63.19 30.560000000000002 63.44 29.520000000000003 63.44 28.390000000000004 C 63.44 26.460000000000004 62.739999999999995 24.870000000000005 61.339999999999996 23.610000000000003 C 60.279999999999994 22.680000000000003 58.17999999999999 21.790000000000003 55.029999999999994 20.950000000000003 L 55.029999999999994 16.450000000000003 C 55.56999999999999 16.740000000000002 55.949999999999996 17.020000000000003 56.18999999999999 17.300000000000004 C 56.41999999999999 17.580000000000005 56.67999999999999 18.090000000000003 56.97999999999999 18.820000000000004 L 62.77999999999999 17.910000000000004 C 62.40999999999999 16.250000000000004 61.59999999999999 14.950000000000003 60.37999999999999 14.000000000000004 C 59.14999999999999 13.040000000000003 57.36999999999999 12.500000000000004 55.03999999999999 12.350000000000003 L 55.03999999999999 10.820000000000004 L 52.779999999999994 10.820000000000004 L 52.779999999999994 12.350000000000003 C 50.23 12.480000000000004 48.309999999999995 13.170000000000003 47.00999999999999 14.420000000000003 C 45.71999999999999 15.660000000000004 45.06999999999999 17.200000000000003 45.06999999999999 19.050000000000004 C 45.06999999999999 20.400000000000006 45.38999999999999 21.540000000000006 46.03999999999999 22.480000000000004 C 46.68999999999999 23.42 47.43999999999999 24.100000000000005 48.31999999999999 24.530000000000005 C 49.199999999999996 24.950000000000006 50.67999999999999 25.460000000000004 52.779999999999994 26.040000000000006 L 52.779999999999994 31.540000000000006 C 52.05 31.190000000000005 51.529999999999994 30.790000000000006 51.209999999999994 30.340000000000007 C 50.88999999999999 29.890000000000008 50.63999999999999 29.150000000000006 50.449999999999996 28.130000000000006 L 44.17999999999999 28.860000000000007 C 44.36999999999999 29.890000000000008 44.64999999999999 30.770000000000007 45.019999999999996 31.500000000000007 C 45.38999999999999 32.230000000000004 45.92999999999999 32.910000000000004 46.61 33.53000000000001 C 47.3 34.16000000000001 48.12 34.66000000000001 49.07 35.010000000000005 C 50.02 35.370000000000005 51.26 35.61000000000001 52.78 35.74 L 52.78 38.06 L 55.03 38.06 L 55.03 38.06 z M 52.77 16.37 C 52.1 16.59 51.64 16.86 51.38 17.18 C 51.120000000000005 17.5 50.99 17.88 50.99 18.32 C 50.99 18.77 51.120000000000005 19.17 51.39 19.5 C 51.660000000000004 19.84 52.12 20.12 52.78 20.35 L 52.78 16.37 L 52.77 16.37 z M 55.03 31.69 C 55.910000000000004 31.490000000000002 56.550000000000004 31.16 56.96 30.71 C 57.37 30.26 57.58 29.75 57.58 29.19 C 57.58 28.700000000000003 57.4 28.25 57.059999999999995 27.84 C 56.709999999999994 27.43 56.03999999999999 27.05 55.029999999999994 26.7 L 55.029999999999994 31.69 L 55.03 31.69 z M 77.64 66.84 L 102.25 66.84 L 102.25 93.28 L 77.64 93.28 C 70.37 93.28 64.42 87.33 64.42 80.06 L 64.42 80.06 C 64.42 72.78 70.37 66.84 77.64 66.84 L 77.64 66.84 z M 83.69 75.68 C 86.17999999999999 75.68 88.2 77.7 88.2 80.19000000000001 C 88.2 82.68 86.18 84.70000000000002 83.69 84.70000000000002 C 81.2 84.70000000000002 79.17999999999999 82.68000000000002 79.17999999999999 80.19000000000001 C 79.18 77.7 81.2 75.68 83.69 75.68 L 83.69 75.68 z" stroke-linecap="round" />
</g>
</svg>